<svg width="48" height="54" viewBox="0 0 48 54" fill="none" xmlns="http://www.w3.org/2000/svg">
<g clip-path="url(#clip0_248_896)">
<path d="M23.9737 5.84708L42.2114 16.3766V37.4356L23.9737 47.965L5.73589 37.4356V16.3766L23.9737 5.84708ZM23.9737 4.98755L4.9917 15.9472V37.8657L23.9737 48.8246L42.9556 37.8657V15.9472L23.9737 4.98829V4.98755Z" fill="#174A00"/>
<path d="M23.9629 4.98615V48.8187" stroke="#174A00" stroke-width="0.744186" stroke-miterlimit="10"/>
<path d="M4.98633 15.9257L42.9398 37.8791" stroke="#174A00" stroke-width="0.744186" stroke-miterlimit="10"/>
<path d="M42.9398 15.9257L4.98633 37.8791" stroke="#174A00" stroke-width="0.744186" stroke-miterlimit="10"/>
<path d="M23.9626 9.59998C26.5108 9.59998 28.5765 7.53424 28.5765 4.98602C28.5765 2.43781 26.5108 0.37207 23.9626 0.37207C21.4144 0.37207 19.3486 2.43781 19.3486 4.98602C19.3486 7.53424 21.4144 9.59998 23.9626 9.59998Z" fill="url(#paint0_linear_248_896)"/>
<path d="M23.9626 0.744186C26.3016 0.744186 28.2045 2.64707 28.2045 4.98605C28.2045 7.32502 26.3016 9.22791 23.9626 9.22791C21.6236 9.22791 19.7207 7.32502 19.7207 4.98605C19.7207 2.64707 21.6236 0.744186 23.9626 0.744186ZM23.9626 0C21.2091 0 18.9766 2.23256 18.9766 4.98605C18.9766 7.73953 21.2091 9.97209 23.9626 9.97209C26.7161 9.97209 28.9487 7.73953 28.9487 4.98605C28.9487 2.23256 26.7161 0 23.9626 0Z" fill="#174A00"/>
<path d="M17.3769 17.8604C18.6716 17.8604 19.7211 16.8109 19.7211 15.5162C19.7211 14.2216 18.6716 13.1721 17.3769 13.1721C16.0822 13.1721 15.0327 14.2216 15.0327 15.5162C15.0327 16.8109 16.0822 17.8604 17.3769 17.8604Z" fill="url(#paint1_linear_248_896)"/>
<path d="M17.3769 13.5442C18.4642 13.5442 19.349 14.429 19.349 15.5163C19.349 16.6035 18.4642 17.4884 17.3769 17.4884C16.2897 17.4884 15.4048 16.6035 15.4048 15.5163C15.4048 14.429 16.2897 13.5442 17.3769 13.5442ZM17.3769 12.8C15.8766 12.8 14.6606 14.016 14.6606 15.5163C14.6606 17.0165 15.8766 18.2325 17.3769 18.2325C18.8772 18.2325 20.0932 17.0165 20.0932 15.5163C20.0932 14.016 18.8772 12.8 17.3769 12.8Z" fill="#174A00"/>
<path d="M37.4697 28.9489C38.7643 28.9489 39.8139 27.8993 39.8139 26.6047C39.8139 25.31 38.7643 24.2605 37.4697 24.2605C36.175 24.2605 35.1255 25.31 35.1255 26.6047C35.1255 27.8993 36.175 28.9489 37.4697 28.9489Z" fill="url(#paint2_linear_248_896)"/>
<path d="M37.4697 24.6325C38.557 24.6325 39.4418 25.5173 39.4418 26.6046C39.4418 27.6918 38.557 28.5767 37.4697 28.5767C36.3824 28.5767 35.4976 27.6918 35.4976 26.6046C35.4976 25.5173 36.3824 24.6325 37.4697 24.6325ZM37.4697 23.8883C35.9694 23.8883 34.7534 25.1043 34.7534 26.6046C34.7534 28.1049 35.9694 29.3209 37.4697 29.3209C38.97 29.3209 40.186 28.1049 40.186 26.6046C40.186 25.1043 38.97 23.8883 37.4697 23.8883Z" fill="#174A00"/>
<path d="M30.5488 17.8604C31.8434 17.8604 32.893 16.8109 32.893 15.5162C32.893 14.2216 31.8434 13.1721 30.5488 13.1721C29.2541 13.1721 28.2046 14.2216 28.2046 15.5162C28.2046 16.8109 29.2541 17.8604 30.5488 17.8604Z" fill="url(#paint3_linear_248_896)"/>
<path d="M30.5488 13.5442C31.6361 13.5442 32.5209 14.429 32.5209 15.5163C32.5209 16.6035 31.6361 17.4884 30.5488 17.4884C29.4615 17.4884 28.5767 16.6035 28.5767 15.5163C28.5767 14.429 29.4615 13.5442 30.5488 13.5442ZM30.5488 12.8C29.0485 12.8 27.8325 14.016 27.8325 15.5163C27.8325 17.0165 29.0485 18.2325 30.5488 18.2325C32.0491 18.2325 33.2651 17.0165 33.2651 15.5163C33.2651 14.016 32.0491 12.8 30.5488 12.8Z" fill="#174A00"/>
<path d="M30.5488 40.6326C31.8434 40.6326 32.893 39.5831 32.893 38.2884C32.893 36.9937 31.8434 35.9442 30.5488 35.9442C29.2541 35.9442 28.2046 36.9937 28.2046 38.2884C28.2046 39.5831 29.2541 40.6326 30.5488 40.6326Z" fill="url(#paint4_linear_248_896)"/>
<path d="M30.5488 36.3162C31.6361 36.3162 32.5209 37.201 32.5209 38.2883C32.5209 39.3756 31.6361 40.2604 30.5488 40.2604C29.4615 40.2604 28.5767 39.3756 28.5767 38.2883C28.5767 37.201 29.4615 36.3162 30.5488 36.3162ZM30.5488 35.572C29.0485 35.572 27.8325 36.788 27.8325 38.2883C27.8325 39.7886 29.0485 41.0046 30.5488 41.0046C32.0491 41.0046 33.2651 39.7886 33.2651 38.2883C33.2651 36.788 32.0491 35.572 30.5488 35.572Z" fill="#174A00"/>
<path d="M17.6 40.2603C18.8947 40.2603 19.9442 39.2108 19.9442 37.9161C19.9442 36.6215 18.8947 35.572 17.6 35.572C16.3054 35.572 15.2559 36.6215 15.2559 37.9161C15.2559 39.2108 16.3054 40.2603 17.6 40.2603Z" fill="url(#paint5_linear_248_896)"/>
<path d="M17.6001 35.9442C18.6873 35.9442 19.5722 36.829 19.5722 37.9163C19.5722 39.0035 18.6873 39.8884 17.6001 39.8884C16.5128 39.8884 15.628 39.0035 15.628 37.9163C15.628 36.829 16.5128 35.9442 17.6001 35.9442ZM17.6001 35.2C16.0998 35.2 14.8838 36.416 14.8838 37.9163C14.8838 39.4166 16.0998 40.6326 17.6001 40.6326C19.1003 40.6326 20.3163 39.4166 20.3163 37.9163C20.3163 36.416 19.1003 35.2 17.6001 35.2Z" fill="#174A00"/>
<path d="M10.9765 29.2465C12.2712 29.2465 13.3207 28.197 13.3207 26.9024C13.3207 25.6077 12.2712 24.5582 10.9765 24.5582C9.68185 24.5582 8.63232 25.6077 8.63232 26.9024C8.63232 28.197 9.68185 29.2465 10.9765 29.2465Z" fill="url(#paint6_linear_248_896)"/>
<path d="M10.9765 24.9302C12.0638 24.9302 12.9486 25.8151 12.9486 26.9023C12.9486 27.9896 12.0638 28.8744 10.9765 28.8744C9.88928 28.8744 9.00444 27.9896 9.00444 26.9023C9.00444 25.8151 9.88928 24.9302 10.9765 24.9302ZM10.9765 24.186C9.47625 24.186 8.26025 25.402 8.26025 26.9023C8.26025 28.4026 9.47625 29.6186 10.9765 29.6186C12.4768 29.6186 13.6928 28.4026 13.6928 26.9023C13.6928 25.402 12.4768 24.186 10.9765 24.186Z" fill="#174A00"/>
<path d="M42.9396 20.5395C45.4879 20.5395 47.5536 18.4738 47.5536 15.9255C47.5536 13.3773 45.4879 11.3116 42.9396 11.3116C40.3914 11.3116 38.3257 13.3773 38.3257 15.9255C38.3257 18.4738 40.3914 20.5395 42.9396 20.5395Z" fill="url(#paint7_linear_248_896)"/>
<path d="M42.9397 11.6837C45.2786 11.6837 47.1815 13.5866 47.1815 15.9256C47.1815 18.2645 45.2786 20.1674 42.9397 20.1674C40.6007 20.1674 38.6978 18.2645 38.6978 15.9256C38.6978 13.5866 40.6007 11.6837 42.9397 11.6837ZM42.9397 10.9395C40.1862 10.9395 37.9536 13.1721 37.9536 15.9256C37.9536 18.679 40.1862 20.9116 42.9397 20.9116C45.6931 20.9116 47.9257 18.679 47.9257 15.9256C47.9257 13.1721 45.6931 10.9395 42.9397 10.9395Z" fill="#174A00"/>
<path d="M43.0139 42.5674C45.5621 42.5674 47.6278 40.5017 47.6278 37.9535C47.6278 35.4053 45.5621 33.3395 43.0139 33.3395C40.4656 33.3395 38.3999 35.4053 38.3999 37.9535C38.3999 40.5017 40.4656 42.5674 43.0139 42.5674Z" fill="url(#paint8_linear_248_896)"/>
<path d="M43.0139 33.7117C45.3529 33.7117 47.2557 35.6145 47.2557 37.9535C47.2557 40.2925 45.3529 42.1954 43.0139 42.1954C40.6749 42.1954 38.772 40.2925 38.772 37.9535C38.772 35.6145 40.6749 33.7117 43.0139 33.7117ZM43.0139 32.9675C40.2604 32.9675 38.0278 35.2 38.0278 37.9535C38.0278 40.707 40.2604 42.9396 43.0139 42.9396C45.7674 42.9396 47.9999 40.707 47.9999 37.9535C47.9999 35.2 45.7674 32.9675 43.0139 32.9675Z" fill="#174A00"/>
<path d="M24.3347 53.4326C26.8829 53.4326 28.9486 51.3668 28.9486 48.8186C28.9486 46.2704 26.8829 44.2047 24.3347 44.2047C21.7864 44.2047 19.7207 46.2704 19.7207 48.8186C19.7207 51.3668 21.7864 53.4326 24.3347 53.4326Z" fill="url(#paint9_linear_248_896)"/>
<path d="M24.3347 44.5768C26.6737 44.5768 28.5765 46.4797 28.5765 48.8186C28.5765 51.1576 26.6737 53.0605 24.3347 53.0605C21.9957 53.0605 20.0928 51.1576 20.0928 48.8186C20.0928 46.4797 21.9957 44.5768 24.3347 44.5768ZM24.3347 43.8326C21.5812 43.8326 19.3486 46.0651 19.3486 48.8186C19.3486 51.5721 21.5812 53.8047 24.3347 53.8047C27.0882 53.8047 29.3207 51.5721 29.3207 48.8186C29.3207 46.0651 27.0882 43.8326 24.3347 43.8326Z" fill="#174A00"/>
<path d="M4.98602 42.493C7.53424 42.493 9.59998 40.4273 9.59998 37.8791C9.59998 35.3309 7.53424 33.2651 4.98602 33.2651C2.43781 33.2651 0.37207 35.3309 0.37207 37.8791C0.37207 40.4273 2.43781 42.493 4.98602 42.493Z" fill="url(#paint10_linear_248_896)"/>
<path d="M4.98605 33.6373C7.32502 33.6373 9.22791 35.5401 9.22791 37.8791C9.22791 40.2181 7.32502 42.121 4.98605 42.121C2.64707 42.121 0.744186 40.2181 0.744186 37.8791C0.744186 35.5401 2.64707 33.6373 4.98605 33.6373ZM4.98605 32.8931C2.23256 32.8931 0 35.1256 0 37.8791C0 40.6326 2.23256 42.8652 4.98605 42.8652C7.73953 42.8652 9.97209 40.6326 9.97209 37.8791C9.97209 35.1256 7.73953 32.8931 4.98605 32.8931Z" fill="#174A00"/>
<path d="M5.06073 20.5395C7.60895 20.5395 9.67468 18.4738 9.67468 15.9255C9.67468 13.3773 7.60895 11.3116 5.06073 11.3116C2.51251 11.3116 0.446777 13.3773 0.446777 15.9255C0.446777 18.4738 2.51251 20.5395 5.06073 20.5395Z" fill="url(#paint11_linear_248_896)"/>
<path d="M5.06027 11.6837C7.39924 11.6837 9.30213 13.5866 9.30213 15.9256C9.30213 18.2645 7.39924 20.1674 5.06027 20.1674C2.72129 20.1674 0.818405 18.2645 0.818405 15.9256C0.818405 13.5866 2.72129 11.6837 5.06027 11.6837ZM5.06027 10.9395C2.30678 10.9395 0.0742188 13.1721 0.0742188 15.9256C0.0742188 18.679 2.30678 20.9116 5.06027 20.9116C7.81375 20.9116 10.0463 18.679 10.0463 15.9256C10.0463 13.1721 7.81375 10.9395 5.06027 10.9395Z" fill="#174A00"/>
<path d="M16.8931 22.8576V31.0213L23.9628 35.1032L31.0326 31.0213V22.8576L23.9628 18.7758L16.8931 22.8576Z" fill="url(#paint12_linear_248_896)" stroke="#174A00" stroke-width="0.744186" stroke-miterlimit="10"/>
</g>
<defs>
<linearGradient id="paint0_linear_248_896" x1="20.677" y1="2.89858" x2="28.4634" y2="7.84593" gradientUnits="userSpaceOnUse">
<stop stop-color="#BFFFC3"/>
<stop offset="0.06" stop-color="#B2FAB7"/>
<stop offset="0.18" stop-color="#90EF98"/>
<stop offset="0.33" stop-color="#58DC67"/>
<stop offset="0.52" stop-color="#0DC323"/>
<stop offset="0.55" stop-color="#00BF17"/>
<stop offset="1" stop-color="#003F12"/>
</linearGradient>
<linearGradient id="paint1_linear_248_896" x1="15.7077" y1="14.4558" x2="19.6638" y2="16.9689" gradientUnits="userSpaceOnUse">
<stop stop-color="#BFFFC3"/>
<stop offset="0.06" stop-color="#B2FAB7"/>
<stop offset="0.18" stop-color="#90EF98"/>
<stop offset="0.33" stop-color="#58DC67"/>
<stop offset="0.52" stop-color="#0DC323"/>
<stop offset="0.55" stop-color="#00BF17"/>
<stop offset="1" stop-color="#003F12"/>
</linearGradient>
<linearGradient id="paint2_linear_248_896" x1="35.8005" y1="25.5442" x2="39.7566" y2="28.0573" gradientUnits="userSpaceOnUse">
<stop stop-color="#BFFFC3"/>
<stop offset="0.06" stop-color="#B2FAB7"/>
<stop offset="0.18" stop-color="#90EF98"/>
<stop offset="0.33" stop-color="#58DC67"/>
<stop offset="0.52" stop-color="#0DC323"/>
<stop offset="0.55" stop-color="#00BF17"/>
<stop offset="1" stop-color="#003F12"/>
</linearGradient>
<linearGradient id="paint3_linear_248_896" x1="28.8796" y1="14.4558" x2="32.8357" y2="16.9689" gradientUnits="userSpaceOnUse">
<stop stop-color="#BFFFC3"/>
<stop offset="0.06" stop-color="#B2FAB7"/>
<stop offset="0.18" stop-color="#90EF98"/>
<stop offset="0.33" stop-color="#58DC67"/>
<stop offset="0.52" stop-color="#0DC323"/>
<stop offset="0.55" stop-color="#00BF17"/>
<stop offset="1" stop-color="#003F12"/>
</linearGradient>
<linearGradient id="paint4_linear_248_896" x1="28.8796" y1="37.2279" x2="32.8357" y2="39.7411" gradientUnits="userSpaceOnUse">
<stop stop-color="#BFFFC3"/>
<stop offset="0.06" stop-color="#B2FAB7"/>
<stop offset="0.18" stop-color="#90EF98"/>
<stop offset="0.33" stop-color="#58DC67"/>
<stop offset="0.52" stop-color="#0DC323"/>
<stop offset="0.55" stop-color="#00BF17"/>
<stop offset="1" stop-color="#003F12"/>
</linearGradient>
<linearGradient id="paint5_linear_248_896" x1="15.9308" y1="36.8557" x2="19.8869" y2="39.3688" gradientUnits="userSpaceOnUse">
<stop stop-color="#BFFFC3"/>
<stop offset="0.06" stop-color="#B2FAB7"/>
<stop offset="0.18" stop-color="#90EF98"/>
<stop offset="0.33" stop-color="#58DC67"/>
<stop offset="0.52" stop-color="#0DC323"/>
<stop offset="0.55" stop-color="#00BF17"/>
<stop offset="1" stop-color="#003F12"/>
</linearGradient>
<linearGradient id="paint6_linear_248_896" x1="9.3073" y1="25.8419" x2="13.2634" y2="28.355" gradientUnits="userSpaceOnUse">
<stop stop-color="#BFFFC3"/>
<stop offset="0.06" stop-color="#B2FAB7"/>
<stop offset="0.18" stop-color="#90EF98"/>
<stop offset="0.33" stop-color="#58DC67"/>
<stop offset="0.52" stop-color="#0DC323"/>
<stop offset="0.55" stop-color="#00BF17"/>
<stop offset="1" stop-color="#003F12"/>
</linearGradient>
<linearGradient id="paint7_linear_248_896" x1="39.6541" y1="13.8381" x2="47.4405" y2="18.7854" gradientUnits="userSpaceOnUse">
<stop stop-color="#BFFFC3"/>
<stop offset="0.06" stop-color="#B2FAB7"/>
<stop offset="0.18" stop-color="#90EF98"/>
<stop offset="0.33" stop-color="#58DC67"/>
<stop offset="0.52" stop-color="#0DC323"/>
<stop offset="0.55" stop-color="#00BF17"/>
<stop offset="1" stop-color="#003F12"/>
</linearGradient>
<linearGradient id="paint8_linear_248_896" x1="39.7283" y1="35.8661" x2="47.5147" y2="40.8134" gradientUnits="userSpaceOnUse">
<stop stop-color="#BFFFC3"/>
<stop offset="0.06" stop-color="#B2FAB7"/>
<stop offset="0.18" stop-color="#90EF98"/>
<stop offset="0.33" stop-color="#58DC67"/>
<stop offset="0.52" stop-color="#0DC323"/>
<stop offset="0.55" stop-color="#00BF17"/>
<stop offset="1" stop-color="#003F12"/>
</linearGradient>
<linearGradient id="paint9_linear_248_896" x1="21.0491" y1="46.7312" x2="28.8355" y2="51.6785" gradientUnits="userSpaceOnUse">
<stop stop-color="#BFFFC3"/>
<stop offset="0.06" stop-color="#B2FAB7"/>
<stop offset="0.18" stop-color="#90EF98"/>
<stop offset="0.33" stop-color="#58DC67"/>
<stop offset="0.52" stop-color="#0DC323"/>
<stop offset="0.55" stop-color="#00BF17"/>
<stop offset="1" stop-color="#003F12"/>
</linearGradient>
<linearGradient id="paint10_linear_248_896" x1="1.70044" y1="35.7916" x2="9.48686" y2="40.739" gradientUnits="userSpaceOnUse">
<stop stop-color="#BFFFC3"/>
<stop offset="0.06" stop-color="#B2FAB7"/>
<stop offset="0.18" stop-color="#90EF98"/>
<stop offset="0.33" stop-color="#58DC67"/>
<stop offset="0.52" stop-color="#0DC323"/>
<stop offset="0.55" stop-color="#00BF17"/>
<stop offset="1" stop-color="#003F12"/>
</linearGradient>
<linearGradient id="paint11_linear_248_896" x1="1.77515" y1="13.8381" x2="9.56157" y2="18.7854" gradientUnits="userSpaceOnUse">
<stop stop-color="#BFFFC3"/>
<stop offset="0.06" stop-color="#B2FAB7"/>
<stop offset="0.18" stop-color="#90EF98"/>
<stop offset="0.33" stop-color="#58DC67"/>
<stop offset="0.52" stop-color="#0DC323"/>
<stop offset="0.55" stop-color="#00BF17"/>
<stop offset="1" stop-color="#003F12"/>
</linearGradient>
<linearGradient id="paint12_linear_248_896" x1="18.3375" y1="23.5572" x2="30.4551" y2="30.8427" gradientUnits="userSpaceOnUse">
<stop stop-color="#BFFFC3"/>
<stop offset="0.06" stop-color="#B2FAB7"/>
<stop offset="0.18" stop-color="#90EF98"/>
<stop offset="0.33" stop-color="#58DC67"/>
<stop offset="0.52" stop-color="#0DC323"/>
<stop offset="0.55" stop-color="#00BF17"/>
<stop offset="1" stop-color="#003F12"/>
</linearGradient>
<clipPath id="clip0_248_896">
<rect width="48" height="53.8046" fill="white"/>
</clipPath>
</defs>
</svg>
