<svg width="24" height="24" viewBox="0 0 24 24" fill="none" xmlns="http://www.w3.org/2000/svg">
<path d="M15.0001 22V18C15.1392 16.7473 14.78 15.4901 14.0001 14.5C17.0001 14.5 20.0001 12.5 20.0001 9C20.0801 7.75 19.7301 6.52 19.0001 5.5C19.2801 4.35 19.2801 3.15 19.0001 2C19.0001 2 18.0001 2 16.0001 3.5C13.3601 3 10.6401 3 8.0001 3.5C6.0001 2 5.0001 2 5.0001 2C4.7001 3.15 4.7001 4.35 5.0001 5.5C4.27175 6.51577 3.91832 7.75276 4.0001 9C4.0001 12.5 7.0001 14.5 10.0001 14.5C9.6101 14.99 9.3201 15.55 9.1501 16.15C8.9801 16.75 8.9301 17.38 9.0001 18V22" stroke="white" stroke-width="2" stroke-linecap="round" stroke-linejoin="round"/>
<path d="M9 18C4.49 20 4 16 2 16" stroke="white" stroke-width="2" stroke-linecap="round" stroke-linejoin="round"/>
</svg>
